<svg version="1.1" id="Layer_1" xmlns="http://www.w3.org/2000/svg" xmlns:xlink="http://www.w3.org/1999/xlink" x="0px" y="0px"
	 width="100%" viewBox="0 0 600 600" enable-background="new 0 0 600 600" xml:space="preserve">
<path fill="#FB6A03" opacity="1.000000" stroke="none" 
	d="
M387.000000,601.000000 
	C258.000000,601.000000 129.500000,601.000000 1.000000,601.000000 
	C1.000000,401.000000 1.000000,201.000000 1.000000,1.000000 
	C201.000000,1.000000 401.000000,1.000000 601.000000,1.000000 
	C601.000000,201.000000 601.000000,401.000000 601.000000,601.000000 
	C529.833313,601.000000 458.666656,601.000000 387.000000,601.000000 
M426.113312,376.552002 
	C425.699310,384.356903 425.669525,392.204834 424.801086,399.958832 
	C421.888000,425.969055 412.895599,449.718292 396.937500,470.558167 
	C369.940094,505.814392 332.995605,523.471313 289.904602,528.852905 
	C250.978043,533.714355 213.798370,526.967407 179.739410,507.015961 
	C135.297836,480.982391 110.151283,442.254089 106.021149,390.598511 
	C105.221428,380.596375 105.906204,370.475525 105.906204,360.409454 
	C105.412514,360.387756 104.918823,360.366058 104.425133,360.344391 
	C104.143639,360.712402 103.688057,361.045837 103.607040,361.453705 
	C102.571587,366.667145 101.413315,371.864746 100.622665,377.116974 
	C95.057335,414.086975 102.254700,448.435944 123.069077,479.481049 
	C151.032394,521.188843 191.056000,544.201904 240.036392,551.958435 
	C283.739929,558.879333 325.309052,551.809509 363.864960,529.754395 
	C396.013580,511.364502 419.588928,485.224731 432.646790,450.235046 
	C442.708954,423.272522 444.716583,395.525421 440.059937,367.198029 
	C434.569672,333.799347 420.377502,304.574036 398.064331,279.224274 
	C397.195190,278.236847 395.981934,277.552307 394.929016,276.726654 
	C413.805878,307.244354 424.868347,339.824646 426.113312,376.552002 
M278.111786,299.387054 
	C273.023315,293.890656 267.612732,288.655853 262.900513,282.853912 
	C238.561188,252.886185 224.635498,219.523849 230.048126,180.001450 
	C233.503571,154.770142 243.847946,132.871460 261.764526,114.728653 
	C278.902893,97.373848 299.957550,86.657433 322.970123,79.420021 
	C327.815094,77.896278 332.703979,76.512238 337.572632,75.063820 
	C329.080872,75.215401 320.763397,75.998665 312.680145,77.820755 
	C304.435516,79.679222 296.257843,82.119331 288.332611,85.063286 
	C241.224014,102.562561 209.331421,148.041199 207.893158,198.227219 
	C206.998413,229.447800 215.611786,257.713684 232.304657,283.704803 
	C238.032074,292.622528 244.621582,300.986572 250.980316,309.830353 
	C249.422806,311.051697 247.726669,312.374054 246.038574,313.706635 
	C233.972839,323.231354 222.273132,333.089722 214.710907,346.881348 
	C204.513290,365.479248 207.979004,384.671204 224.591919,397.767609 
	C240.364304,410.201385 258.577454,413.294800 277.937775,409.393433 
	C291.176483,406.725647 302.681458,400.595367 311.037659,389.556580 
	C322.017883,375.051453 321.946136,355.528656 311.072449,336.969635 
	C302.609619,322.525360 290.241608,311.538147 278.111786,299.387054 
M380.550842,303.946045 
	C365.314209,280.980621 343.935303,264.098907 323.606049,246.132767 
	C333.229248,259.490479 343.671082,272.138336 353.580353,285.190460 
	C379.195557,318.929626 391.292694,356.204224 380.960571,398.521362 
	C373.390503,429.526184 355.660583,453.764374 327.355804,468.562775 
	C284.573059,490.930603 240.884842,489.884644 198.539810,467.518860 
	C151.811935,442.838165 129.229492,392.450348 146.760147,339.991364 
	C148.391785,335.108795 150.218704,330.291504 151.954941,325.443909 
	C151.555954,325.160675 151.156952,324.877441 150.757965,324.594208 
	C150.484238,325.209473 150.300140,325.886688 149.923706,326.430908 
	C140.478317,340.085602 134.198029,355.146698 132.175934,371.550079 
	C126.827110,414.940094 141.865952,450.610016 176.576279,476.583130 
	C217.700317,507.355469 263.982025,514.036682 313.033081,499.725128 
	C365.346954,484.461517 401.254211,437.465515 402.825806,383.143066 
	C403.647705,354.734924 396.389557,328.478302 380.550842,303.946045 
M357.507629,398.957245 
	C367.112183,367.871429 363.011536,338.363708 344.821106,311.741913 
	C335.508087,298.112366 323.385162,286.377716 312.310486,273.984711 
	C303.001801,263.567963 292.642639,254.010223 284.048187,243.052811 
	C269.594025,224.624649 263.988953,203.522720 268.840851,180.158768 
	C269.111023,178.857834 269.347992,177.548477 269.549561,176.235245 
	C269.744385,174.966064 269.873352,173.686768 270.031281,172.411911 
	C264.792633,180.695007 262.703552,189.666473 261.973328,198.967468 
	C260.105927,222.752213 269.017548,243.072067 283.091980,261.346161 
	C293.549225,274.923676 305.005249,287.726990 315.773224,301.071381 
	C329.853607,318.520752 339.969604,337.719543 340.666992,360.785065 
	C341.488098,387.942047 331.161987,409.558044 307.830048,423.912567 
	C284.882568,438.030609 260.063354,439.218781 234.653076,431.971985 
	C218.907623,427.481476 205.392014,419.145569 195.275574,406.044312 
	C177.412109,382.910309 175.905167,348.732269 191.841583,322.307220 
	C196.326736,314.870148 202.066299,308.189575 207.644302,300.598938 
	C205.240463,302.043396 203.106186,303.147614 201.161835,304.520752 
	C167.358032,328.393616 156.852463,379.241516 178.779984,414.343018 
	C195.179062,440.594604 219.671448,454.511871 249.768799,459.438568 
	C292.056793,466.360779 340.465637,447.616028 357.507629,398.957245 
z"/>
<path fill="#F5F1EC" opacity="1.000000" stroke="none" 
	d="
M426.101318,376.062012 
	C424.868347,339.824646 413.805878,307.244354 394.929016,276.726654 
	C395.981934,277.552307 397.195190,278.236847 398.064331,279.224274 
	C420.377502,304.574036 434.569672,333.799347 440.059937,367.198029 
	C444.716583,395.525421 442.708954,423.272522 432.646790,450.235046 
	C419.588928,485.224731 396.013580,511.364502 363.864960,529.754395 
	C325.309052,551.809509 283.739929,558.879333 240.036392,551.958435 
	C191.056000,544.201904 151.032394,521.188843 123.069077,479.481049 
	C102.254700,448.435944 95.057335,414.086975 100.622665,377.116974 
	C101.413315,371.864746 102.571587,366.667145 103.607040,361.453705 
	C103.688057,361.045837 104.143639,360.712402 104.425133,360.344391 
	C104.918823,360.366058 105.412514,360.387756 105.906204,360.409454 
	C105.906204,370.475525 105.221428,380.596375 106.021149,390.598511 
	C110.151283,442.254089 135.297836,480.982391 179.739410,507.015961 
	C213.798370,526.967407 250.978043,533.714355 289.904602,528.852905 
	C332.995605,523.471313 369.940094,505.814392 396.937500,470.558167 
	C412.895599,449.718292 421.888000,425.969055 424.801086,399.958832 
	C425.669525,392.204834 425.699310,384.356903 426.101318,376.062012 
z"/>
<path fill="#F5F1EC" opacity="1.000000" stroke="none" 
	d="
M278.355469,299.642853 
	C290.241608,311.538147 302.609619,322.525360 311.072449,336.969635 
	C321.946136,355.528656 322.017883,375.051453 311.037659,389.556580 
	C302.681458,400.595367 291.176483,406.725647 277.937775,409.393433 
	C258.577454,413.294800 240.364304,410.201385 224.591919,397.767609 
	C207.979004,384.671204 204.513290,365.479248 214.710907,346.881348 
	C222.273132,333.089722 233.972839,323.231354 246.038574,313.706635 
	C247.726669,312.374054 249.422806,311.051697 250.980316,309.830353 
	C244.621582,300.986572 238.032074,292.622528 232.304657,283.704803 
	C215.611786,257.713684 206.998413,229.447800 207.893158,198.227219 
	C209.331421,148.041199 241.224014,102.562561 288.332611,85.063286 
	C296.257843,82.119331 304.435516,79.679222 312.680145,77.820755 
	C320.763397,75.998665 329.080872,75.215401 337.572632,75.063820 
	C332.703979,76.512238 327.815094,77.896278 322.970123,79.420021 
	C299.957550,86.657433 278.902893,97.373848 261.764526,114.728653 
	C243.847946,132.871460 233.503571,154.770142 230.048126,180.001450 
	C224.635498,219.523849 238.561188,252.886185 262.900513,282.853912 
	C267.612732,288.655853 273.023315,293.890656 278.355469,299.642853 
M283.022583,341.498749 
	C272.960480,331.631714 262.898346,321.764679 252.622375,311.687958 
	C242.143265,322.399078 231.475037,333.105530 224.492157,346.813904 
	C216.464630,362.573120 218.875504,376.498413 231.247177,385.658844 
	C247.262512,397.517181 273.499695,396.359100 287.874908,383.159363 
	C296.152557,375.558594 298.127380,366.454956 292.981567,356.605164 
	C290.308472,351.488495 286.703247,346.858826 283.022583,341.498749 
z"/>
<path fill="#F5F1EC" opacity="1.000000" stroke="none" 
	d="
M380.749420,304.247253 
	C396.389557,328.478302 403.647705,354.734924 402.825806,383.143066 
	C401.254211,437.465515 365.346954,484.461517 313.033081,499.725128 
	C263.982025,514.036682 217.700317,507.355469 176.576279,476.583130 
	C141.865952,450.610016 126.827110,414.940094 132.175934,371.550079 
	C134.198029,355.146698 140.478317,340.085602 149.923706,326.430908 
	C150.300140,325.886688 150.484238,325.209473 150.757965,324.594208 
	C151.156952,324.877441 151.555954,325.160675 151.954941,325.443909 
	C150.218704,330.291504 148.391785,335.108795 146.760147,339.991364 
	C129.229492,392.450348 151.811935,442.838165 198.539810,467.518860 
	C240.884842,489.884644 284.573059,490.930603 327.355804,468.562775 
	C355.660583,453.764374 373.390503,429.526184 380.960571,398.521362 
	C391.292694,356.204224 379.195557,318.929626 353.580353,285.190460 
	C343.671082,272.138336 333.229248,259.490479 323.606049,246.132767 
	C343.935303,264.098907 365.314209,280.980621 380.749420,304.247253 
z"/>
<path fill="#F5F1EC" opacity="1.000000" stroke="none" 
	d="
M357.349762,399.320984 
	C340.465637,447.616028 292.056793,466.360779 249.768799,459.438568 
	C219.671448,454.511871 195.179062,440.594604 178.779984,414.343018 
	C156.852463,379.241516 167.358032,328.393616 201.161835,304.520752 
	C203.106186,303.147614 205.240463,302.043396 207.644302,300.598938 
	C202.066299,308.189575 196.326736,314.870148 191.841583,322.307220 
	C175.905167,348.732269 177.412109,382.910309 195.275574,406.044312 
	C205.392014,419.145569 218.907623,427.481476 234.653076,431.971985 
	C260.063354,439.218781 284.882568,438.030609 307.830048,423.912567 
	C331.161987,409.558044 341.488098,387.942047 340.666992,360.785065 
	C339.969604,337.719543 329.853607,318.520752 315.773224,301.071381 
	C305.005249,287.726990 293.549225,274.923676 283.091980,261.346161 
	C269.017548,243.072067 260.105927,222.752213 261.973328,198.967468 
	C262.703552,189.666473 264.792633,180.695007 270.031281,172.411911 
	C269.873352,173.686768 269.744385,174.966064 269.549561,176.235245 
	C269.347992,177.548477 269.111023,178.857834 268.840851,180.158768 
	C263.988953,203.522720 269.594025,224.624649 284.048187,243.052811 
	C292.642639,254.010223 303.001801,263.567963 312.310486,273.984711 
	C323.385162,286.377716 335.508087,298.112366 344.821106,311.741913 
	C363.011536,338.363708 367.112183,367.871429 357.349762,399.320984 
z"/>
<path fill="#FB6B05" opacity="1.000000" stroke="none" 
	d="
M283.270844,341.753967 
	C286.703247,346.858826 290.308472,351.488495 292.981567,356.605164 
	C298.127380,366.454956 296.152557,375.558594 287.874908,383.159363 
	C273.499695,396.359100 247.262512,397.517181 231.247177,385.658844 
	C218.875504,376.498413 216.464630,362.573120 224.492157,346.813904 
	C231.475037,333.105530 242.143265,322.399078 252.622375,311.687958 
	C262.898346,321.764679 272.960480,331.631714 283.270844,341.753967 
z"/>
</svg>