<svg version="1.1" id="Layer_1" xmlns="http://www.w3.org/2000/svg" xmlns:xlink="http://www.w3.org/1999/xlink" x="0px" y="0px"
	 width="100%" viewBox="0 0 1430 800" enable-background="new 0 0 1430 800" xml:space="preserve">
<path fill="#FB6A03" opacity="1.000000" stroke="none" 
	d="
M6.000000,1.000000 
	C480.368256,1.000000 954.736511,1.000000 1429.552124,1.457953 
	C1429.999634,268.277283 1429.999878,534.638611 1430.000000,801.000000 
	C955.631775,801.000000 481.263519,801.000000 6.447990,800.542053 
	C6.000478,533.722717 6.000239,267.361359 6.000000,1.000000 
M710.504211,319.425232 
	C707.386780,322.606659 703.701721,325.409424 701.272644,329.050110 
	C696.535461,336.150391 699.173401,344.158356 707.035095,347.583008 
	C709.726746,348.755493 712.793030,349.683136 715.681274,349.664215 
	C722.229919,349.621368 728.361023,347.837921 731.782532,341.577942 
	C735.031677,335.633423 733.520081,329.887604 729.676270,324.790649 
	C727.186218,321.488922 724.107605,318.637573 721.410461,315.483704 
	C718.176147,311.701691 714.609314,308.100433 711.980774,303.921295 
	C698.418091,282.357727 706.526245,257.725891 730.117004,248.120605 
	C731.197632,247.680603 732.225342,247.110565 734.214844,246.147461 
	C718.100464,246.472610 704.825134,258.989075 700.925110,271.317383 
	C695.890930,287.230347 699.523621,301.439240 709.105042,314.614044 
	C710.188232,316.103485 710.350220,318.262939 711.018860,320.018402 
	C711.018860,320.018402 711.109802,319.936096 710.504211,319.425232 
M757.816162,308.368500 
	C757.715576,308.555908 757.614990,308.743317 757.514404,308.930725 
	C757.802063,308.676544 758.089722,308.422363 757.941162,308.931488 
	C758.968506,311.340454 759.986328,313.753540 761.024597,316.157806 
	C769.055786,334.754700 769.489075,353.011230 756.229309,369.321014 
	C744.154663,384.172974 727.476807,388.164581 709.005493,385.972229 
	C686.778748,383.334137 669.697693,366.315338 667.047791,344.232239 
	C666.884521,342.871490 666.512573,341.535797 666.237732,340.188477 
	C663.522888,352.166138 666.220764,362.924713 673.189636,372.624329 
	C686.077881,390.562805 710.536255,398.542175 733.485901,392.381500 
	C760.489563,385.132568 775.132385,362.934357 771.038452,335.481415 
	C769.497192,325.146179 764.261353,316.536377 757.816162,308.368500 
M759.177979,343.910431 
	C759.300476,324.624298 750.210449,306.933990 736.213989,300.904327 
	C751.793518,318.815399 761.311523,337.206848 745.855286,358.826141 
	C737.346130,370.728149 719.756348,375.604340 704.224060,370.467957 
	C682.271545,363.208527 673.972168,347.855408 679.801086,325.022064 
	C672.332581,337.548676 673.142334,352.039337 681.734497,363.140411 
	C690.032227,373.861053 701.513672,378.363525 714.657776,379.488007 
	C736.895508,381.390472 756.322937,366.256470 759.177979,343.910431 
M722.470703,364.850769 
	C743.704590,361.407867 752.991577,339.203156 742.866516,321.226898 
	C739.823853,315.824799 735.341492,311.091003 730.931091,306.632385 
	C722.398315,298.006531 714.661804,289.269287 717.816406,275.677368 
	C713.842041,284.920715 715.109192,293.526520 720.839050,301.402466 
	C724.650757,306.641846 728.991394,311.493011 732.957397,316.624542 
	C738.013733,323.166840 741.098755,330.492828 739.552612,338.879303 
	C737.269409,351.263092 727.086609,357.990417 712.685852,357.098694 
	C695.160034,356.013489 685.241089,338.621002 693.340149,323.066864 
	C694.560730,320.722809 696.203125,318.598389 698.084900,315.704041 
	C685.653198,323.343262 682.194031,340.998444 690.441895,352.145660 
	C698.213257,362.648895 709.014709,366.111816 722.470703,364.850769 
M645.976318,486.662018 
	C649.820251,491.732819 654.941101,488.887939 659.503052,489.507294 
	C659.976990,488.859161 660.450867,488.211060 660.924805,487.562927 
	C653.844849,481.594025 646.764832,475.625153 639.684875,469.656250 
	C639.648193,468.751099 639.611572,467.845947 639.574951,466.940796 
	C646.138855,461.322998 652.702820,455.705170 659.943481,449.508179 
	C651.611267,447.699402 645.975525,448.700500 641.754517,454.831787 
	C639.569824,458.005188 636.472351,460.550293 632.772095,464.448761 
	C632.772095,458.534027 632.772095,454.006622 632.772095,449.326294 
	C629.289856,449.326294 626.463867,449.326294 623.428040,449.326294 
	C623.428040,462.009064 623.346680,474.151215 623.564392,486.287994 
	C623.584290,487.399780 625.352478,489.088409 626.600464,489.423615 
	C628.356140,489.895203 630.384766,489.350983 632.814880,489.211365 
	C632.814880,483.747437 632.814880,478.862274 632.814880,472.476929 
	C637.709839,477.756622 641.593262,481.945312 645.976318,486.662018 
M798.615479,464.998260 
	C796.698364,464.454346 794.772339,463.939453 792.866211,463.359467 
	C790.240051,462.560486 786.996765,461.420013 788.337341,458.211700 
	C789.042236,456.524628 792.433899,455.364868 794.732483,455.126862 
	C796.579590,454.935547 799.534302,455.938171 800.385010,457.369446 
	C803.183838,462.078278 806.762573,460.567413 810.515198,459.946381 
	C809.627747,449.767151 797.906677,446.544403 789.389954,448.690033 
	C783.059082,450.284912 779.524231,453.863037 779.203430,459.341492 
	C778.880859,464.850372 781.448914,468.511322 787.651917,470.796265 
	C791.382874,472.170624 795.375977,472.876892 799.016235,474.433197 
	C800.567871,475.096527 801.945923,477.006042 802.559814,478.661804 
	C802.859192,479.469391 801.491455,481.382080 800.415649,482.121216 
	C797.209229,484.324219 789.251038,483.411957 787.652527,480.014709 
	C785.144958,474.685577 781.329468,476.192230 777.377625,476.451294 
	C778.516907,483.797455 781.908813,487.672943 788.984314,489.192841 
	C796.375061,490.780396 803.641602,490.889709 809.224976,484.566315 
	C810.249817,483.405701 810.789673,481.626434 811.085754,480.045166 
	C812.526917,472.349030 809.793579,468.951141 798.615479,464.998260 
M745.042297,467.356293 
	C742.523926,474.505341 740.005554,481.654419 737.452881,488.900818 
	C744.893311,490.168823 746.326660,490.070374 746.899475,486.842926 
	C747.935730,481.004364 751.318115,479.743652 756.448914,480.519623 
	C757.752380,480.716766 759.279663,480.159241 760.404480,480.643890 
	C762.103210,481.375854 764.310852,482.382477 764.953491,483.859253 
	C767.807983,490.418884 767.726868,490.539368 776.107910,488.818024 
	C771.564270,476.128693 767.209290,463.430511 762.281128,450.958801 
	C761.735535,449.578033 757.932434,449.041718 755.610779,448.961548 
	C754.072510,448.908386 751.622498,449.981476 751.065857,451.218658 
	C748.821045,456.207611 747.153503,461.456268 745.042297,467.356293 
M672.833679,487.316467 
	C673.551941,481.987823 676.325806,479.495941 681.890747,480.504608 
	C683.501099,480.796478 685.315369,480.197937 686.840576,480.657227 
	C688.317078,481.101929 690.196167,482.085510 690.768433,483.345612 
	C693.925232,490.296387 693.806641,490.350250 702.118042,488.923981 
	C697.509644,476.097321 693.009338,463.320648 688.201965,450.660583 
	C687.811707,449.632965 685.302795,448.878540 683.807922,448.925934 
	C681.555481,448.997345 677.808777,449.292175 677.326111,450.522980 
	C672.382202,463.130615 667.969788,475.946655 662.831604,490.319366 
	C666.925110,489.363495 669.723328,488.710114 672.833679,487.316467 
M872.499573,513.548889 
	C879.861267,513.548889 887.222961,513.548889 894.584717,513.548889 
	C894.560059,513.178223 894.535461,512.807617 894.510864,512.436951 
	C776.504822,512.436951 658.498840,512.436951 540.492859,512.436951 
	C540.492981,512.807556 540.493103,513.178223 540.493225,513.548828 
	C650.828674,513.548828 761.164062,513.548828 872.499573,513.548889 
M714.564087,451.241913 
	C713.745483,446.918701 710.332397,449.107422 708.122925,449.036743 
	C707.385620,449.013184 705.918884,451.575165 705.887512,452.979767 
	C705.683350,462.134552 705.782227,471.296082 705.782043,480.455414 
	C705.782043,483.383850 705.782104,486.312317 705.782104,489.161316 
	C715.693726,489.161316 724.736755,489.161316 733.794556,489.161316 
	C733.794556,486.795929 733.794556,484.851593 733.794556,482.219330 
	C727.345398,482.219330 721.122375,482.219330 714.576233,482.219330 
	C714.576233,471.724121 714.576233,461.916046 714.564087,451.241913 
M783.374573,546.489258 
	C783.711304,547.994080 784.048035,549.498901 784.384705,551.003723 
	C784.908569,550.946838 785.432373,550.889954 785.956177,550.833069 
	C785.956177,545.746704 785.956177,540.660339 785.956177,535.129883 
	C777.885681,533.318909 781.938232,543.067017 778.364258,544.303345 
	C773.886719,542.346191 777.961304,533.315002 769.430359,535.117554 
	C768.298096,547.001526 768.696594,549.647827 771.898254,550.542114 
	C772.143433,548.290527 772.384827,546.073364 772.626282,543.856201 
	C774.144836,545.161255 774.461792,546.763245 775.255005,548.078003 
	C775.919617,549.179504 777.140442,549.945374 778.114929,550.859863 
	C778.899475,549.939148 779.883484,549.120850 780.421326,548.073486 
	C781.210144,546.537415 781.679749,544.837463 782.783936,541.865234 
	C783.131958,544.137634 783.249878,544.907410 783.374573,546.489258 
M627.958923,421.436279 
	C627.823853,419.624146 627.848145,417.778412 627.476379,416.016205 
	C627.324951,415.298370 626.149719,414.155518 625.728149,414.269653 
	C624.860291,414.504456 623.552002,415.436676 623.532104,416.114380 
	C623.359558,421.998383 623.432556,427.889618 623.432556,433.804230 
	C626.251892,433.612152 626.251892,433.612152 628.439148,425.559235 
	C630.842773,425.559235 633.241638,425.559235 636.092346,425.559235 
	C636.092346,427.661560 635.744141,429.555878 636.207153,431.225159 
	C636.551697,432.467651 637.946838,433.418793 638.874084,434.499695 
	C639.325439,434.204315 639.776733,433.908905 640.228027,433.613525 
	C640.228027,427.995880 640.318420,422.375305 640.135925,416.763580 
	C640.106750,415.866028 638.855835,415.008240 638.169739,414.132080 
	C637.478333,415.015686 636.430603,415.808899 636.178162,416.803864 
	C635.789368,418.336121 635.946045,420.006744 635.856262,421.943268 
	C633.284241,421.943268 631.004578,421.943268 627.958923,421.436279 
M740.322876,434.058746 
	C742.093384,434.058746 743.863892,434.058746 745.634338,434.058746 
	C745.820435,433.649231 746.006531,433.239716 746.192566,432.830170 
	C745.424255,432.158386 744.727905,431.043335 743.872925,430.904449 
	C741.928589,430.588593 739.835083,431.051361 737.944031,430.601562 
	C736.916077,430.357056 736.178162,428.892700 735.309448,427.978577 
	C736.139954,427.210358 736.853088,426.087891 737.830750,425.764160 
	C739.032776,425.366150 740.506592,425.849243 741.767334,425.549530 
	C742.848450,425.292542 743.794983,424.469543 744.801025,423.896851 
	C743.846313,423.294983 742.942200,422.305023 741.926270,422.172546 
	C739.847778,421.901611 737.709290,422.091278 735.595459,422.091278 
	C735.324585,421.544800 735.053772,420.998322 734.782898,420.451874 
	C735.937256,419.516571 736.961670,418.172424 738.280029,417.753571 
	C739.792053,417.273285 741.608337,417.830505 743.206543,417.509583 
	C744.054382,417.339294 744.720337,416.263519 745.468445,415.596527 
	C744.739197,415.098694 744.024841,414.198029 743.278259,414.170471 
	C739.366089,414.026184 735.445862,414.103058 731.340942,414.103058 
	C731.340942,421.038879 731.340942,427.264404 731.340942,434.058746 
	C734.180481,434.058746 736.787964,434.058746 740.322876,434.058746 
M709.590393,428.312714 
	C708.478149,428.004578 707.365906,427.696442 705.741272,427.246338 
	C706.585815,433.251587 710.291504,434.132629 714.484924,434.145294 
	C717.888062,434.155579 720.865234,433.141937 721.484009,429.252747 
	C722.215393,424.656403 718.833191,423.391479 715.416565,422.154541 
	C713.702148,421.533844 712.103333,420.593689 710.347168,419.747345 
	C714.265808,413.160400 717.510803,422.320465 721.001648,419.412170 
	C719.278015,415.005310 716.519226,412.962280 712.286865,414.208588 
	C710.071716,414.860870 707.270630,417.232697 706.794922,419.301788 
	C705.838318,423.462372 709.721191,424.536163 712.873291,425.753723 
	C714.659180,426.443573 716.310059,427.483063 718.571655,428.648438 
	C714.843445,431.878845 712.335754,431.662506 709.590393,428.312714 
M662.013855,414.113647 
	C654.150269,413.901550 649.748352,417.711090 650.020081,424.493256 
	C650.272400,430.790009 654.964417,434.793365 661.335388,434.147675 
	C665.900696,433.684998 669.137390,430.535980 669.882751,425.831818 
	C670.712219,420.596008 668.353821,416.742767 662.013855,414.113647 
M768.286987,421.219513 
	C767.599792,428.608521 770.335938,433.178711 775.987610,434.081848 
	C781.758606,435.004059 786.373352,432.069641 787.694519,426.637756 
	C788.967102,421.405518 786.352234,416.329651 781.497925,414.609314 
	C776.075562,412.687622 771.370239,414.834625 768.286987,421.219513 
M696.217834,421.388611 
	C696.217834,419.105347 696.217834,416.822113 696.217834,414.538849 
	C695.658569,414.271851 695.099243,414.004883 694.539978,413.737885 
	C693.733032,414.905243 692.380127,416.006165 692.228333,417.253235 
	C691.869324,420.203033 692.561523,423.336487 691.887512,426.171936 
	C691.462524,427.959656 689.339050,429.343567 687.977539,430.908630 
	C686.619019,429.363068 684.460144,427.990662 684.079956,426.233429 
	C683.427002,423.215088 684.126282,419.926758 683.742798,416.815247 
	C683.609314,415.731750 681.951721,414.836090 680.990173,413.854645 
	C679.969421,419.190521 679.747375,423.512848 680.031067,427.801758 
	C680.322693,432.210510 683.227783,434.061035 687.460022,434.177002 
	C691.780090,434.295319 695.014954,432.834778 695.860779,428.218414 
	C696.216858,426.275055 696.112610,424.247406 696.217834,421.388611 
M873.083679,541.123535 
	C872.953125,541.958618 872.822510,542.793762 872.497131,544.875183 
	C870.508972,541.311035 869.307373,538.770752 867.717834,536.502380 
	C867.104187,535.626648 865.474915,534.789795 864.558289,535.004089 
	C863.772461,535.187744 862.901123,536.869385 862.837036,537.934753 
	C862.627930,541.412231 862.631958,544.920166 862.867798,548.395142 
	C862.933228,549.360413 864.086975,550.251770 864.741394,551.177002 
	C865.172302,551.009949 865.603210,550.842834 866.034119,550.675781 
	C866.034119,547.648315 866.034119,544.620850 866.034119,541.593384 
	C868.577759,543.965088 869.943787,546.723877 871.683960,549.222107 
	C872.291931,550.095093 873.922729,550.859436 874.897339,550.674866 
	C875.627136,550.536743 876.470520,548.824951 876.538147,547.767517 
	C876.749695,544.456604 876.793518,541.109314 876.521606,537.807434 
	C876.429077,536.683960 875.206177,535.653564 874.499756,534.580627 
	C874.028259,534.857971 873.556702,535.135376 873.085205,535.412720 
	C873.085205,537.047668 873.085205,538.682556 873.083679,541.123535 
M802.421509,426.558502 
	C804.957642,425.008087 809.269958,428.278473 811.353943,423.270935 
	C807.783020,423.046875 804.912842,422.866791 801.802979,422.671661 
	C801.970032,420.786407 802.096130,419.362976 802.255371,417.565674 
	C804.679626,417.565674 806.828247,417.733185 808.928101,417.486176 
	C809.813477,417.382019 810.596008,416.403717 811.425293,415.822815 
	C810.606201,415.256134 809.809937,414.243591 808.964050,414.200287 
	C805.390564,414.017242 801.802246,414.122772 798.111206,414.122772 
	C798.111206,421.046448 798.111206,427.402069 798.111206,434.032867 
	C804.067566,434.131989 800.976990,429.609192 802.421509,426.558502 
M625.410889,536.535950 
	C625.410889,538.897278 625.410889,541.258606 625.410889,543.982971 
	C620.737671,541.649780 622.010742,533.809753 615.288208,534.978882 
	C615.288208,540.536377 615.288208,545.618286 615.288208,551.565979 
	C620.242676,548.798584 616.473999,544.164307 618.989136,541.085083 
	C620.609680,543.869385 622.011902,546.610291 623.761902,549.107544 
	C624.382751,549.993469 625.932556,550.821472 626.902710,550.671265 
	C627.606323,550.562317 628.476074,548.824036 628.538208,547.769104 
	C628.743103,544.290161 628.662048,540.790588 628.597412,537.300659 
	C628.553650,534.934875 627.574829,534.192932 625.410889,536.535950 
M815.418579,549.571533 
	C816.643066,550.042786 818.049438,551.147949 819.055969,550.859314 
	C821.502502,550.157715 824.903137,549.405090 825.852295,547.591187 
	C827.615784,544.221252 824.768738,542.293823 821.623352,541.210266 
	C820.206421,540.722168 818.886719,539.951843 817.522888,539.309570 
	C817.729065,538.651123 817.935303,537.992676 818.141541,537.334229 
	C820.661072,537.997986 823.180603,538.661804 826.599121,539.562500 
	C824.636475,535.081970 821.909302,533.809692 818.598816,534.845215 
	C816.880615,535.382629 814.625305,537.119385 814.315552,538.657288 
	C813.595886,542.230774 816.797668,543.085022 819.486633,544.156250 
	C820.867004,544.706177 822.002869,545.869507 823.249268,546.755554 
	C822.926025,547.350586 822.602783,547.945557 822.279480,548.540527 
	C819.620422,547.567444 816.961304,546.594299 813.399536,545.290894 
	C814.062317,546.955017 814.485168,548.016907 815.418579,549.571533 
M842.730347,546.097046 
	C843.228027,547.744629 843.725708,549.392212 844.223389,551.039795 
	C844.724121,550.870972 845.224915,550.702148 845.725708,550.533386 
	C845.725708,545.337952 845.725708,540.142578 845.725708,534.947205 
	C845.194092,534.797058 844.662476,534.646912 844.130859,534.496765 
	C843.414673,536.591980 842.698486,538.687134 841.980652,540.787109 
	C840.038208,540.787109 838.109436,540.787109 836.110779,540.787109 
	C835.966125,538.730347 835.842102,536.966309 835.718079,535.202271 
	C835.316406,534.992737 834.914734,534.783203 834.513062,534.573669 
	C833.802979,535.567505 832.613647,536.501099 832.479675,537.567261 
	C832.171875,540.016174 832.130066,542.562622 832.453857,545.006714 
	C832.716553,546.989197 833.669006,548.880249 834.315552,550.811890 
	C834.881104,548.956360 835.441467,547.099243 836.017639,545.247009 
	C836.109558,544.951294 836.272461,544.677734 836.763245,543.607300 
	C838.591187,544.100586 840.619934,544.648132 842.730347,546.097046 
M693.147217,534.994324 
	C690.763062,540.888489 691.737061,549.863159 694.824341,550.434814 
	C695.144592,548.905701 695.464905,547.376526 695.807800,545.739441 
	C698.650574,547.880859 701.191040,549.794556 703.731506,551.708191 
	C704.136353,551.234558 704.541199,550.760864 704.946106,550.287231 
	C703.395630,548.422180 701.845154,546.557068 701.008484,545.550659 
	C702.403442,542.901489 704.636353,540.626648 704.480835,538.528931 
	C704.195679,534.683105 700.508240,534.780151 697.459778,534.759094 
	C696.296448,534.751099 695.132690,534.800476 693.147217,534.994324 
M758.859497,544.028870 
	C761.799744,543.085083 763.817627,541.050232 762.430054,538.088867 
	C759.816650,532.511536 754.696533,535.496582 749.813477,534.704834 
	C750.878601,540.434082 748.763977,545.893616 751.128357,550.757874 
	C751.650391,550.705139 752.172424,550.652466 752.694458,550.599731 
	C753.093750,549.016113 753.493042,547.432556 753.856628,545.990723 
	C756.716858,547.995667 759.239319,549.763855 761.761780,551.532043 
	C762.096985,551.080505 762.432251,550.628906 762.767517,550.177368 
	C761.263794,548.250671 759.760071,546.323914 758.859497,544.028870 
M569.388123,549.538025 
	C567.648438,549.052856 565.913025,548.186401 564.168091,548.166809 
	C561.123474,548.132568 560.295044,547.048340 561.355408,544.337524 
	C563.840149,543.930115 566.178406,543.546692 569.842590,542.945862 
	C563.814575,540.194519 561.476562,538.555359 561.587830,537.583130 
	C564.148499,537.267761 566.691711,536.954529 569.234924,536.641357 
	C569.187561,536.175964 569.140259,535.710632 569.092896,535.245239 
	C565.466980,535.245239 561.841003,535.245239 558.053223,535.245239 
	C558.053223,540.381653 558.053223,545.468262 558.053223,551.140686 
	C561.967712,550.841980 565.547729,550.568787 569.388123,549.538025 
M728.091614,544.967102 
	C729.123657,548.535156 731.425049,551.152588 735.155701,550.813660 
	C737.668396,550.585327 740.697815,549.312561 742.313171,547.470032 
	C744.938721,544.475281 745.097900,540.125122 741.966614,537.555725 
	C739.767761,535.751343 735.901917,534.735596 733.089417,535.207764 
	C728.668091,535.949951 727.478699,539.878601 728.091614,544.967102 
M893.916260,550.805115 
	C893.631287,549.906616 893.449280,548.290222 893.043823,548.232056 
	C891.130249,547.957642 889.155579,548.109680 886.965515,548.109680 
	C886.886414,546.830383 886.608154,545.440796 886.824951,545.358704 
	C889.180542,544.466858 891.613708,543.780090 894.025696,543.037415 
	C892.580383,541.598206 890.876709,541.475586 889.266602,541.021362 
	C888.355774,540.764343 887.598755,539.962463 886.772461,539.406006 
	C887.628540,538.691223 888.382385,537.622375 889.363098,537.339172 
	C891.132324,536.828308 893.037292,536.787476 894.885498,536.550293 
	C894.820435,536.099426 894.755310,535.648560 894.690186,535.197693 
	C890.903076,535.197693 887.115967,535.197693 883.401489,535.197693 
	C883.401489,540.559082 883.401489,545.468140 883.401489,550.891907 
	C886.816101,550.891907 889.922913,550.891907 893.916260,550.805115 
M685.199341,535.057373 
	C681.601990,535.057373 678.004700,535.057373 674.493835,535.057373 
	C674.493835,540.464661 674.493835,545.520081 674.493835,550.175598 
	C678.621094,550.175598 682.321533,550.175598 686.021973,550.175598 
	C686.026306,549.642151 686.030701,549.108704 686.035034,548.575256 
	C684.416504,548.411133 682.726074,548.480408 681.201843,548.010315 
	C679.939697,547.621033 678.873779,546.595581 677.720886,545.851929 
	C678.803711,545.207153 679.817627,544.337585 680.988159,543.978638 
	C682.255493,543.589966 683.668884,543.677551 685.018555,543.557495 
	C685.095520,542.998108 685.172485,542.438782 685.249451,541.879395 
	C683.607971,541.611633 681.929810,541.473999 680.338989,541.026184 
	C679.414368,540.765808 678.629822,540.007751 677.782288,539.473572 
	C678.614319,538.736572 679.333679,537.738953 680.303101,537.319763 
	C682.033875,536.571350 683.915588,536.171997 685.199341,535.057373 
M602.795471,534.835510 
	C600.664490,534.835510 598.533508,534.835510 596.373779,534.835510 
	C596.373779,540.388367 596.373779,545.536926 596.373779,550.685425 
	C596.873230,550.815430 597.372681,550.945435 597.872131,551.075439 
	C598.472839,549.178528 599.073547,547.281677 599.620544,545.554382 
	C602.204651,547.596069 604.809631,549.654236 607.414612,551.712402 
	C607.821289,551.241394 608.228027,550.770386 608.634705,550.299438 
	C607.068542,548.455322 605.502380,546.611267 604.472656,545.398804 
	C605.911438,543.033264 608.000549,541.046204 608.044739,539.014709 
	C608.073975,537.670288 605.169739,536.262085 602.795471,534.835510 
M588.556213,545.815796 
	C587.451416,542.864441 586.347778,539.912659 585.241455,536.961853 
	C584.166260,534.094238 581.689514,533.655273 580.514343,535.964783 
	C578.186523,540.539551 576.805603,545.596191 574.682068,551.416260 
	C578.236755,549.534180 580.568115,547.351013 582.907410,547.342468 
	C585.018127,547.334717 587.137573,549.706726 590.357117,551.719360 
	C589.565491,549.007080 589.204651,547.770935 588.556213,545.815796 
M662.091919,544.886658 
	C665.873901,544.282410 669.018677,542.986633 667.975708,538.248718 
	C667.187622,534.668701 662.769226,533.753845 655.099060,535.501953 
	C655.099060,539.720947 655.011230,544.009033 655.173035,548.287720 
	C655.205383,549.144897 656.188293,549.966125 656.732849,550.803894 
	C657.354492,550.026062 657.989624,549.258606 658.594543,548.468018 
	C659.494019,547.292480 660.372070,546.100525 662.091919,544.886658 
M711.098755,537.057922 
	C711.094421,539.878601 710.924316,542.712402 711.145508,545.515320 
	C711.286560,547.301697 712.007446,549.042358 712.468323,550.803528 
	C713.260437,549.118408 714.044739,547.429443 714.852356,545.751709 
	C714.988464,545.468872 715.225464,545.234619 715.297668,545.137207 
	C717.612000,544.642822 719.771912,544.181396 721.931824,543.719971 
	C721.870911,543.246094 721.809937,542.772217 721.749023,542.298401 
	C719.577087,542.091858 717.405151,541.885315 715.007629,541.657349 
	C713.426758,534.280334 721.187073,539.301392 723.029968,534.329773 
	C718.554565,535.026978 714.853455,535.603516 711.098755,537.057922 
M547.918213,550.913513 
	C549.000854,550.473083 550.083557,550.032593 551.166199,549.592163 
	C551.017883,549.169922 550.869568,548.747742 550.721191,548.325500 
	C548.492798,548.139587 546.264343,547.953735 543.624084,547.733521 
	C543.624084,544.968079 543.630005,542.504578 543.622803,540.041077 
	C543.608887,535.290283 543.605835,535.290283 540.408447,535.607422 
	C540.408447,540.551331 540.408447,545.475098 540.408447,550.914246 
	C542.844177,550.914246 544.963074,550.914246 547.918213,550.913513 
M851.978577,544.374146 
	C852.304932,546.309265 852.631348,548.244385 852.957764,550.179504 
	C853.434570,550.068665 853.911316,549.957764 854.388123,549.846924 
	C856.066589,542.007812 855.286865,535.202698 851.978577,533.917969 
	C851.978577,537.238892 851.978577,540.331970 851.978577,544.374146 
M756.497681,306.526764 
	C756.497681,306.526764 756.552734,306.499084 756.497681,306.526764 
z"/>
<path fill="#323232" opacity="1.000000" stroke="none" 
	d="
M5.502111,1.000000 
	C6.000239,267.361359 6.000478,533.722717 6.000359,800.542053 
	C4.334354,801.000000 2.668708,801.000000 1.003225,801.000000 
	C1.003389,534.333313 1.003389,267.666656 1.005083,1.000000 
	C2.339259,1.000000 3.671741,1.000000 5.502111,1.000000 
z"/>
<path fill="#323232" opacity="1.000000" stroke="none" 
	d="
M1430.500000,801.000000 
	C1429.999878,534.638611 1429.999634,268.277283 1429.999756,1.457941 
	C1430.333374,1.166643 1430.943970,1.315885 1430.955566,1.502766 
	C1431.039062,2.830878 1431.000000,4.166667 1431.000000,5.500000 
	C1431.000000,270.666656 1431.000000,535.833313 1430.500000,801.000000 
z"/>
<path fill="#F5ECE5" opacity="1.000000" stroke="none" 
	d="
M758.393738,308.213684 
	C764.261353,316.536377 769.497192,325.146179 771.038452,335.481415 
	C775.132385,362.934357 760.489563,385.132568 733.485901,392.381500 
	C710.536255,398.542175 686.077881,390.562805 673.189636,372.624329 
	C666.220764,362.924713 663.522888,352.166138 666.237732,340.188477 
	C666.512573,341.535797 666.884521,342.871490 667.047791,344.232239 
	C669.697693,366.315338 686.778748,383.334137 709.005493,385.972229 
	C727.476807,388.164581 744.154663,384.172974 756.229309,369.321014 
	C769.489075,353.011230 769.055786,334.754700 761.024597,316.157806 
	C759.986328,313.753540 758.968506,311.340454 758.137146,308.585266 
	C758.333130,308.239044 758.393738,308.213684 758.393738,308.213684 
z"/>
<path fill="#F5ECE5" opacity="1.000000" stroke="none" 
	d="
M759.152222,344.342896 
	C756.322937,366.256470 736.895508,381.390472 714.657776,379.488007 
	C701.513672,378.363525 690.032227,373.861053 681.734497,363.140411 
	C673.142334,352.039337 672.332581,337.548676 679.801086,325.022064 
	C673.972168,347.855408 682.271545,363.208527 704.224060,370.467957 
	C719.756348,375.604340 737.346130,370.728149 745.855286,358.826141 
	C761.311523,337.206848 751.793518,318.815399 736.213989,300.904327 
	C750.210449,306.933990 759.300476,324.624298 759.152222,344.342896 
z"/>
<path fill="#F5ECE5" opacity="1.000000" stroke="none" 
	d="
M710.939331,320.111725 
	C710.350220,318.262939 710.188232,316.103485 709.105042,314.614044 
	C699.523621,301.439240 695.890930,287.230347 700.925110,271.317383 
	C704.825134,258.989075 718.100464,246.472610 734.214844,246.147461 
	C732.225342,247.110565 731.197632,247.680603 730.117004,248.120605 
	C706.526245,257.725891 698.418091,282.357727 711.980774,303.921295 
	C714.609314,308.100433 718.176147,311.701691 721.410461,315.483704 
	C724.107605,318.637573 727.186218,321.488922 729.676270,324.790649 
	C733.520081,329.887604 735.031677,335.633423 731.782532,341.577942 
	C728.361023,347.837921 722.229919,349.621368 715.681274,349.664215 
	C712.793030,349.683136 709.726746,348.755493 707.035095,347.583008 
	C699.173401,344.158356 696.535461,336.150391 701.272644,329.050110 
	C703.701721,325.409424 707.386780,322.606659 710.724365,320.017029 
	C708.430237,324.102356 705.375977,327.334656 703.529663,331.151306 
	C700.828430,336.734985 703.911987,341.786774 710.359314,343.580261 
	C716.898926,345.399384 724.890686,342.070770 725.701233,336.973694 
	C725.939026,335.478607 725.574463,333.427185 724.662842,332.291443 
	C721.143677,327.907074 717.331604,323.752594 713.489990,319.641998 
	C713.171692,319.301422 711.814087,319.932251 710.939331,320.111725 
z"/>
<path fill="#F5ECE5" opacity="1.000000" stroke="none" 
	d="
M722.058472,364.895081 
	C709.014709,366.111816 698.213257,362.648895 690.441895,352.145660 
	C682.194031,340.998444 685.653198,323.343262 698.084900,315.704041 
	C696.203125,318.598389 694.560730,320.722809 693.340149,323.066864 
	C685.241089,338.621002 695.160034,356.013489 712.685852,357.098694 
	C727.086609,357.990417 737.269409,351.263092 739.552612,338.879303 
	C741.098755,330.492828 738.013733,323.166840 732.957397,316.624542 
	C728.991394,311.493011 724.650757,306.641846 720.839050,301.402466 
	C715.109192,293.526520 713.842041,284.920715 717.816406,275.677368 
	C714.661804,289.269287 722.398315,298.006531 730.931091,306.632385 
	C735.341492,311.091003 739.823853,315.824799 742.866516,321.226898 
	C752.991577,339.203156 743.704590,361.407867 722.058472,364.895081 
z"/>
<path fill="#130800" opacity="1.000000" stroke="none" 
	d="
M645.726562,486.398010 
	C641.593262,481.945312 637.709839,477.756622 632.814880,472.476929 
	C632.814880,478.862274 632.814880,483.747437 632.814880,489.211365 
	C630.384766,489.350983 628.356140,489.895203 626.600464,489.423615 
	C625.352478,489.088409 623.584290,487.399780 623.564392,486.287994 
	C623.346680,474.151215 623.428040,462.009064 623.428040,449.326294 
	C626.463867,449.326294 629.289856,449.326294 632.772095,449.326294 
	C632.772095,454.006622 632.772095,458.534027 632.772095,464.448761 
	C636.472351,460.550293 639.569824,458.005188 641.754517,454.831787 
	C645.975525,448.700500 651.611267,447.699402 659.943481,449.508179 
	C652.702820,455.705170 646.138855,461.322998 639.574951,466.940796 
	C639.611572,467.845947 639.648193,468.751099 639.684875,469.656250 
	C646.764832,475.625153 653.844849,481.594025 660.924805,487.562927 
	C660.450867,488.211060 659.976990,488.859161 659.503052,489.507294 
	C654.941101,488.887939 649.820251,491.732819 645.726562,486.398010 
z"/>
<path fill="#0B0500" opacity="1.000000" stroke="none" 
	d="
M798.995544,465.088196 
	C809.793579,468.951141 812.526917,472.349030 811.085754,480.045166 
	C810.789673,481.626434 810.249817,483.405701 809.224976,484.566315 
	C803.641602,490.889709 796.375061,490.780396 788.984314,489.192841 
	C781.908813,487.672943 778.516907,483.797455 777.377625,476.451294 
	C781.329468,476.192230 785.144958,474.685577 787.652527,480.014709 
	C789.251038,483.411957 797.209229,484.324219 800.415649,482.121216 
	C801.491455,481.382080 802.859192,479.469391 802.559814,478.661804 
	C801.945923,477.006042 800.567871,475.096527 799.016235,474.433197 
	C795.375977,472.876892 791.382874,472.170624 787.651917,470.796265 
	C781.448914,468.511322 778.880859,464.850372 779.203430,459.341492 
	C779.524231,453.863037 783.059082,450.284912 789.389954,448.690033 
	C797.906677,446.544403 809.627747,449.767151 810.515198,459.946381 
	C806.762573,460.567413 803.183838,462.078278 800.385010,457.369446 
	C799.534302,455.938171 796.579590,454.935547 794.732483,455.126862 
	C792.433899,455.364868 789.042236,456.524628 788.337341,458.211700 
	C786.996765,461.420013 790.240051,462.560486 792.866211,463.359467 
	C794.772339,463.939453 796.698364,464.454346 798.995544,465.088196 
z"/>
<path fill="#0B0500" opacity="1.000000" stroke="none" 
	d="
M745.157593,466.982666 
	C747.153503,461.456268 748.821045,456.207611 751.065857,451.218658 
	C751.622498,449.981476 754.072510,448.908386 755.610779,448.961548 
	C757.932434,449.041718 761.735535,449.578033 762.281128,450.958801 
	C767.209290,463.430511 771.564270,476.128693 776.107910,488.818024 
	C767.726868,490.539368 767.807983,490.418884 764.953491,483.859253 
	C764.310852,482.382477 762.103210,481.375854 760.404480,480.643890 
	C759.279663,480.159241 757.752380,480.716766 756.448914,480.519623 
	C751.318115,479.743652 747.935730,481.004364 746.899475,486.842926 
	C746.326660,490.070374 744.893311,490.168823 737.452881,488.900818 
	C740.005554,481.654419 742.523926,474.505341 745.157593,466.982666 
M757.759766,461.311279 
	C757.414734,460.575134 757.069641,459.838989 756.441833,458.499634 
	C754.733948,463.626556 753.218079,468.177277 751.571045,473.121521 
	C755.154480,473.121521 758.002686,473.121521 761.480835,473.121521 
	C760.202148,469.093353 759.072815,465.535706 757.759766,461.311279 
z"/>
<path fill="#0B0500" opacity="1.000000" stroke="none" 
	d="
M672.677612,487.686584 
	C669.723328,488.710114 666.925110,489.363495 662.831604,490.319366 
	C667.969788,475.946655 672.382202,463.130615 677.326111,450.522980 
	C677.808777,449.292175 681.555481,448.997345 683.807922,448.925934 
	C685.302795,448.878540 687.811707,449.632965 688.201965,450.660583 
	C693.009338,463.320648 697.509644,476.097321 702.118042,488.923981 
	C693.806641,490.350250 693.925232,490.296387 690.768433,483.345612 
	C690.196167,482.085510 688.317078,481.101929 686.840576,480.657227 
	C685.315369,480.197937 683.501099,480.796478 681.890747,480.504608 
	C676.325806,479.495941 673.551941,481.987823 672.677612,487.686584 
M684.617310,464.060028 
	C684.002197,462.376282 683.387024,460.692535 682.467773,458.176483 
	C680.684387,463.550293 679.168457,468.118256 677.480469,473.204620 
	C679.852722,473.311401 681.458374,473.446899 683.063049,473.435638 
	C684.324463,473.426819 685.584717,473.236847 687.382751,473.080658 
	C686.456665,470.044586 685.654175,467.413666 684.617310,464.060028 
z"/>
<path fill="#0B0500" opacity="1.000000" stroke="none" 
	d="
M871.999512,513.548828 
	C761.164062,513.548828 650.828674,513.548828 540.493225,513.548828 
	C540.493103,513.178223 540.492981,512.807556 540.492859,512.436951 
	C658.498840,512.436951 776.504822,512.436951 894.510864,512.436951 
	C894.535461,512.807617 894.560059,513.178223 894.584717,513.548889 
	C887.222961,513.548889 879.861267,513.548889 871.999512,513.548828 
z"/>
<path fill="#130800" opacity="1.000000" stroke="none" 
	d="
M714.570190,451.674927 
	C714.576233,461.916046 714.576233,471.724121 714.576233,482.219330 
	C721.122375,482.219330 727.345398,482.219330 733.794556,482.219330 
	C733.794556,484.851593 733.794556,486.795929 733.794556,489.161316 
	C724.736755,489.161316 715.693726,489.161316 705.782104,489.161316 
	C705.782104,486.312317 705.782043,483.383850 705.782043,480.455414 
	C705.782227,471.296082 705.683350,462.134552 705.887512,452.979767 
	C705.918884,451.575165 707.385620,449.013184 708.122925,449.036743 
	C710.332397,449.107422 713.745483,446.918701 714.570190,451.674927 
z"/>
<path fill="#1E0C00" opacity="1.000000" stroke="none" 
	d="
M783.371216,546.083252 
	C783.249878,544.907410 783.131958,544.137634 782.783936,541.865234 
	C781.679749,544.837463 781.210144,546.537415 780.421326,548.073486 
	C779.883484,549.120850 778.899475,549.939148 778.114929,550.859863 
	C777.140442,549.945374 775.919617,549.179504 775.255005,548.078003 
	C774.461792,546.763245 774.144836,545.161255 772.626282,543.856201 
	C772.384827,546.073364 772.143433,548.290527 771.898254,550.542114 
	C768.696594,549.647827 768.298096,547.001526 769.430359,535.117554 
	C777.961304,533.315002 773.886719,542.346191 778.364258,544.303345 
	C781.938232,543.067017 777.885681,533.318909 785.956177,535.129883 
	C785.956177,540.660339 785.956177,545.746704 785.956177,550.833069 
	C785.432373,550.889954 784.908569,550.946838 784.384705,551.003723 
	C784.048035,549.498901 783.711304,547.994080 783.371216,546.083252 
z"/>
<path fill="#1E0C00" opacity="1.000000" stroke="none" 
	d="
M628.341919,421.689758 
	C631.004578,421.943268 633.284241,421.943268 635.856262,421.943268 
	C635.946045,420.006744 635.789368,418.336121 636.178162,416.803864 
	C636.430603,415.808899 637.478333,415.015686 638.169739,414.132080 
	C638.855835,415.008240 640.106750,415.866028 640.135925,416.763580 
	C640.318420,422.375305 640.228027,427.995880 640.228027,433.613525 
	C639.776733,433.908905 639.325439,434.204315 638.874084,434.499695 
	C637.946838,433.418793 636.551697,432.467651 636.207153,431.225159 
	C635.744141,429.555878 636.092346,427.661560 636.092346,425.559235 
	C633.241638,425.559235 630.842773,425.559235 628.439148,425.559235 
	C626.251892,433.612152 626.251892,433.612152 623.432556,433.804230 
	C623.432556,427.889618 623.359558,421.998383 623.532104,416.114380 
	C623.552002,415.436676 624.860291,414.504456 625.728149,414.269653 
	C626.149719,414.155518 627.324951,415.298370 627.476379,416.016205 
	C627.848145,417.778412 627.823853,419.624146 628.341919,421.689758 
z"/>
<path fill="#1E0C00" opacity="1.000000" stroke="none" 
	d="
M739.859131,434.058746 
	C736.787964,434.058746 734.180481,434.058746 731.340942,434.058746 
	C731.340942,427.264404 731.340942,421.038879 731.340942,414.103058 
	C735.445862,414.103058 739.366089,414.026184 743.278259,414.170471 
	C744.024841,414.198029 744.739197,415.098694 745.468445,415.596497 
	C744.720337,416.263519 744.054382,417.339294 743.206543,417.509583 
	C741.608337,417.830505 739.792053,417.273285 738.280029,417.753571 
	C736.961670,418.172424 735.937256,419.516571 734.782898,420.451874 
	C735.053772,420.998322 735.324585,421.544800 735.595459,422.091278 
	C737.709290,422.091278 739.847778,421.901611 741.926270,422.172546 
	C742.942200,422.305023 743.846313,423.294983 744.801025,423.896851 
	C743.794983,424.469543 742.848450,425.292542 741.767334,425.549530 
	C740.506592,425.849243 739.032776,425.366150 737.830750,425.764160 
	C736.853088,426.087891 736.139954,427.210358 735.309448,427.978577 
	C736.178162,428.892700 736.916077,430.357056 737.944031,430.601562 
	C739.835083,431.051361 741.928589,430.588593 743.872925,430.904449 
	C744.727905,431.043335 745.424255,432.158386 746.192566,432.830170 
	C746.006531,433.239716 745.820435,433.649231 745.634338,434.058746 
	C743.863892,434.058746 742.093384,434.058746 739.859131,434.058746 
z"/>
<path fill="#130800" opacity="1.000000" stroke="none" 
	d="
M709.780029,428.615784 
	C712.335754,431.662506 714.843445,431.878845 718.571655,428.648438 
	C716.310059,427.483063 714.659180,426.443573 712.873291,425.753723 
	C709.721191,424.536163 705.838318,423.462372 706.794922,419.301788 
	C707.270630,417.232697 710.071716,414.860870 712.286865,414.208588 
	C716.519226,412.962280 719.278015,415.005310 721.001648,419.412170 
	C717.510803,422.320465 714.265808,413.160400 710.347168,419.747345 
	C712.103333,420.593689 713.702148,421.533844 715.416565,422.154541 
	C718.833191,423.391479 722.215393,424.656403 721.484009,429.252747 
	C720.865234,433.141937 717.888062,434.155579 714.484924,434.145294 
	C710.291504,434.132629 706.585815,433.251587 705.741272,427.246338 
	C707.365906,427.696442 708.478149,428.004578 709.780029,428.615784 
z"/>
<path fill="#130800" opacity="1.000000" stroke="none" 
	d="
M662.407837,414.188293 
	C668.353821,416.742767 670.712219,420.596008 669.882751,425.831818 
	C669.137390,430.535980 665.900696,433.684998 661.335388,434.147675 
	C654.964417,434.793365 650.272400,430.790009 650.020081,424.493256 
	C649.748352,417.711090 654.150269,413.901550 662.407837,414.188293 
M659.624878,417.272217 
	C658.570557,417.722961 657.350159,417.968201 656.492126,418.661774 
	C653.550659,421.039398 653.282043,426.079926 655.910278,428.934814 
	C658.150696,431.368439 660.746521,431.694824 663.402283,429.625061 
	C666.224487,427.425568 666.855469,422.555298 664.475342,419.776581 
	C663.484619,418.619843 661.764343,418.088043 659.624878,417.272217 
z"/>
<path fill="#130800" opacity="1.000000" stroke="none" 
	d="
M768.452759,420.852783 
	C771.370239,414.834625 776.075562,412.687622 781.497925,414.609314 
	C786.352234,416.329651 788.967102,421.405518 787.694519,426.637756 
	C786.373352,432.069641 781.758606,435.004059 775.987610,434.081848 
	C770.335938,433.178711 767.599792,428.608521 768.452759,420.852783 
M772.585999,421.362579 
	C772.479553,422.824768 771.732849,424.765533 772.395874,425.652435 
	C773.916809,427.687103 776.009949,430.364777 778.091064,430.572327 
	C779.766174,430.739349 783.165283,427.765808 783.289429,426.008362 
	C783.473572,423.402710 782.138855,419.816833 780.175842,418.146210 
	C777.528809,415.893402 774.604309,417.628052 772.585999,421.362579 
z"/>
<path fill="#130800" opacity="1.000000" stroke="none" 
	d="
M696.217773,421.823334 
	C696.112610,424.247406 696.216858,426.275055 695.860779,428.218414 
	C695.014954,432.834778 691.780090,434.295319 687.460022,434.177002 
	C683.227783,434.061035 680.322693,432.210510 680.031067,427.801758 
	C679.747375,423.512848 679.969421,419.190521 680.990173,413.854645 
	C681.951721,414.836090 683.609314,415.731750 683.742798,416.815247 
	C684.126282,419.926758 683.427002,423.215088 684.079956,426.233429 
	C684.460144,427.990662 686.619019,429.363068 687.977539,430.908630 
	C689.339050,429.343567 691.462524,427.959656 691.887512,426.171936 
	C692.561523,423.336487 691.869324,420.203033 692.228333,417.253235 
	C692.380127,416.006165 693.733032,414.905243 694.539978,413.737885 
	C695.099243,414.004883 695.658569,414.271851 696.217834,414.538849 
	C696.217834,416.822113 696.217834,419.105347 696.217773,421.823334 
z"/>
<path fill="#1E0C00" opacity="1.000000" stroke="none" 
	d="
M873.084473,540.720520 
	C873.085205,538.682556 873.085205,537.047668 873.085205,535.412720 
	C873.556702,535.135376 874.028259,534.857971 874.499756,534.580627 
	C875.206177,535.653564 876.429077,536.683960 876.521606,537.807434 
	C876.793518,541.109314 876.749695,544.456604 876.538147,547.767517 
	C876.470520,548.824951 875.627136,550.536743 874.897339,550.674866 
	C873.922729,550.859436 872.291931,550.095093 871.683960,549.222107 
	C869.943787,546.723877 868.577759,543.965088 866.034119,541.593384 
	C866.034119,544.620850 866.034119,547.648315 866.034119,550.675781 
	C865.603210,550.842834 865.172302,551.009949 864.741394,551.177002 
	C864.086975,550.251770 862.933228,549.360413 862.867798,548.395142 
	C862.631958,544.920166 862.627930,541.412231 862.837036,537.934753 
	C862.901123,536.869385 863.772461,535.187744 864.558289,535.004089 
	C865.474915,534.789795 867.104187,535.626648 867.717834,536.502380 
	C869.307373,538.770752 870.508972,541.311035 872.497131,544.875183 
	C872.822510,542.793762 872.953125,541.958618 873.084473,540.720520 
z"/>
<path fill="#130800" opacity="1.000000" stroke="none" 
	d="
M802.215637,426.981537 
	C800.976990,429.609192 804.067566,434.131989 798.111206,434.032867 
	C798.111206,427.402069 798.111206,421.046448 798.111206,414.122772 
	C801.802246,414.122772 805.390564,414.017242 808.964050,414.200287 
	C809.809937,414.243591 810.606201,415.256134 811.425293,415.822784 
	C810.596008,416.403717 809.813477,417.382019 808.928101,417.486176 
	C806.828247,417.733185 804.679626,417.565674 802.255371,417.565674 
	C802.096130,419.362976 801.970032,420.786407 801.802979,422.671661 
	C804.912842,422.866791 807.783020,423.046875 811.353943,423.270935 
	C809.269958,428.278473 804.957642,425.008087 802.215637,426.981537 
z"/>
<path fill="#1E0C00" opacity="1.000000" stroke="none" 
	d="
M625.469727,536.177429 
	C627.574829,534.192932 628.553650,534.934875 628.597412,537.300659 
	C628.662048,540.790588 628.743103,544.290161 628.538208,547.769104 
	C628.476074,548.824036 627.606323,550.562317 626.902710,550.671265 
	C625.932556,550.821472 624.382751,549.993469 623.761902,549.107544 
	C622.011902,546.610291 620.609680,543.869385 618.989136,541.085083 
	C616.473999,544.164307 620.242676,548.798584 615.288208,551.565979 
	C615.288208,545.618286 615.288208,540.536377 615.288208,534.978882 
	C622.010742,533.809753 620.737671,541.649780 625.410889,543.982971 
	C625.410889,541.258606 625.410889,538.897278 625.469727,536.177429 
z"/>
<path fill="#1E0C00" opacity="1.000000" stroke="none" 
	d="
M815.163330,549.325195 
	C814.485168,548.016907 814.062317,546.955017 813.399536,545.290894 
	C816.961304,546.594299 819.620422,547.567444 822.279480,548.540527 
	C822.602783,547.945557 822.926025,547.350586 823.249268,546.755554 
	C822.002869,545.869507 820.867004,544.706177 819.486633,544.156250 
	C816.797668,543.085022 813.595886,542.230774 814.315552,538.657288 
	C814.625305,537.119385 816.880615,535.382629 818.598816,534.845215 
	C821.909302,533.809692 824.636475,535.081970 826.599121,539.562500 
	C823.180603,538.661804 820.661072,537.997986 818.141541,537.334229 
	C817.935303,537.992676 817.729065,538.651123 817.522888,539.309570 
	C818.886719,539.951843 820.206421,540.722168 821.623352,541.210266 
	C824.768738,542.293823 827.615784,544.221252 825.852295,547.591187 
	C824.903137,549.405090 821.502502,550.157715 819.055969,550.859314 
	C818.049438,551.147949 816.643066,550.042786 815.163330,549.325195 
z"/>
<path fill="#1E0C00" opacity="1.000000" stroke="none" 
	d="
M842.689575,545.646362 
	C840.619934,544.648132 838.591187,544.100586 836.763245,543.607300 
	C836.272461,544.677734 836.109558,544.951294 836.017639,545.247009 
	C835.441467,547.099243 834.881104,548.956360 834.315552,550.811890 
	C833.669006,548.880249 832.716553,546.989197 832.453857,545.006714 
	C832.130066,542.562622 832.171875,540.016174 832.479675,537.567261 
	C832.613647,536.501099 833.802979,535.567505 834.513062,534.573669 
	C834.914734,534.783203 835.316406,534.992737 835.718079,535.202271 
	C835.842102,536.966309 835.966125,538.730347 836.110779,540.787109 
	C838.109436,540.787109 840.038208,540.787109 841.980652,540.787109 
	C842.698486,538.687134 843.414673,536.591980 844.130859,534.496765 
	C844.662476,534.646912 845.194092,534.797058 845.725708,534.947205 
	C845.725708,540.142578 845.725708,545.337952 845.725708,550.533386 
	C845.224915,550.702148 844.724121,550.870972 844.223389,551.039795 
	C843.725708,549.392212 843.228027,547.744629 842.689575,545.646362 
z"/>
<path fill="#1E0C00" opacity="1.000000" stroke="none" 
	d="
M693.558167,534.908936 
	C695.132690,534.800476 696.296448,534.751099 697.459778,534.759094 
	C700.508240,534.780151 704.195679,534.683105 704.480835,538.528931 
	C704.636353,540.626648 702.403442,542.901489 701.008484,545.550659 
	C701.845154,546.557068 703.395630,548.422180 704.946106,550.287231 
	C704.541199,550.760864 704.136353,551.234558 703.731506,551.708191 
	C701.191040,549.794556 698.650574,547.880859 695.807800,545.739441 
	C695.464905,547.376526 695.144592,548.905701 694.823853,550.436401 
	C691.737061,549.863159 690.763062,540.888489 693.558167,534.908936 
M695.307983,538.722229 
	C694.867737,541.637756 696.604370,542.204590 698.801636,541.560974 
	C699.774475,541.276001 700.459167,540.007385 701.274658,539.185242 
	C699.938049,538.548950 698.636841,537.808044 697.244324,537.337036 
	C696.797668,537.185913 696.109863,537.748047 695.307983,538.722229 
z"/>
<path fill="#1E0C00" opacity="1.000000" stroke="none" 
	d="
M758.557983,544.213013 
	C759.760071,546.323914 761.263794,548.250671 762.767517,550.177368 
	C762.432251,550.628906 762.096985,551.080505 761.761780,551.532043 
	C759.239319,549.763855 756.716858,547.995667 753.856628,545.990723 
	C753.493042,547.432556 753.093750,549.016113 752.694458,550.599731 
	C752.172424,550.652466 751.650391,550.705139 751.128357,550.757874 
	C748.763977,545.893616 750.878601,540.434082 749.813477,534.704834 
	C754.696533,535.496582 759.816650,532.511536 762.430054,538.088867 
	C763.817627,541.050232 761.799744,543.085083 758.557983,544.213013 
M753.307678,538.722229 
	C752.870422,541.608887 754.571960,542.211304 756.774475,541.561218 
	C757.739319,541.276428 758.411926,540.001831 759.217224,539.176697 
	C757.896118,538.543335 756.610596,537.805176 755.233337,537.337341 
	C754.790222,537.186829 754.105103,537.748901 753.307678,538.722229 
z"/>
<path fill="#1E0C00" opacity="1.000000" stroke="none" 
	d="
M569.257935,549.916748 
	C565.547729,550.568787 561.967712,550.841980 558.053223,551.140686 
	C558.053223,545.468262 558.053223,540.381653 558.053223,535.245239 
	C561.841003,535.245239 565.466980,535.245239 569.092896,535.245239 
	C569.140259,535.710632 569.187561,536.175964 569.234924,536.641357 
	C566.691711,536.954529 564.148499,537.267761 561.587830,537.583130 
	C561.476562,538.555359 563.814575,540.194519 569.842590,542.945862 
	C566.178406,543.546692 563.840149,543.930115 561.355408,544.337524 
	C560.295044,547.048340 561.123474,548.132568 564.168091,548.166809 
	C565.913025,548.186401 567.648438,549.052856 569.257935,549.916748 
z"/>
<path fill="#130800" opacity="1.000000" stroke="none" 
	d="
M728.043091,544.558838 
	C727.478699,539.878601 728.668091,535.949951 733.089417,535.207764 
	C735.901917,534.735596 739.767761,535.751343 741.966614,537.555725 
	C745.097900,540.125122 744.938721,544.475281 742.313171,547.470032 
	C740.697815,549.312561 737.668396,550.585327 735.155701,550.813660 
	C731.425049,551.152588 729.123657,548.535156 728.043091,544.558838 
M731.195007,541.814758 
	C731.250183,544.745850 731.602600,547.879150 735.236938,547.950134 
	C736.840759,547.981445 739.785583,546.091858 739.838440,544.967041 
	C739.950195,542.588013 739.282898,539.165833 737.625610,537.935425 
	C734.824097,535.855652 732.469299,537.946350 731.195007,541.814758 
z"/>
<path fill="#1E0C00" opacity="1.000000" stroke="none" 
	d="
M893.472961,550.848511 
	C889.922913,550.891907 886.816101,550.891907 883.401489,550.891907 
	C883.401489,545.468140 883.401489,540.559082 883.401489,535.197693 
	C887.115967,535.197693 890.903076,535.197693 894.690186,535.197693 
	C894.755310,535.648560 894.820435,536.099426 894.885498,536.550293 
	C893.037292,536.787476 891.132324,536.828308 889.363098,537.339172 
	C888.382385,537.622375 887.628540,538.691223 886.772461,539.406006 
	C887.598755,539.962463 888.355774,540.764343 889.266602,541.021362 
	C890.876709,541.475586 892.580383,541.598206 894.025696,543.037415 
	C891.613708,543.780090 889.180542,544.466858 886.824951,545.358704 
	C886.608154,545.440796 886.886414,546.830383 886.965515,548.109680 
	C889.155579,548.109680 891.130249,547.957642 893.043823,548.232056 
	C893.449280,548.290222 893.631287,549.906616 893.472961,550.848511 
z"/>
<path fill="#1E0C00" opacity="1.000000" stroke="none" 
	d="
M685.466736,535.342041 
	C683.915588,536.171997 682.033875,536.571350 680.303101,537.319763 
	C679.333679,537.738953 678.614319,538.736572 677.782288,539.473572 
	C678.629822,540.007751 679.414368,540.765808 680.338989,541.026184 
	C681.929810,541.473999 683.607971,541.611633 685.249451,541.879395 
	C685.172485,542.438782 685.095520,542.998108 685.018555,543.557495 
	C683.668884,543.677551 682.255493,543.589966 680.988159,543.978638 
	C679.817627,544.337585 678.803711,545.207153 677.720886,545.851929 
	C678.873779,546.595581 679.939697,547.621033 681.201843,548.010315 
	C682.726074,548.480408 684.416504,548.411133 686.035034,548.575256 
	C686.030701,549.108704 686.026306,549.642151 686.021973,550.175598 
	C682.321533,550.175598 678.621094,550.175598 674.493835,550.175598 
	C674.493835,545.520081 674.493835,540.464661 674.493835,535.057373 
	C678.004700,535.057373 681.601990,535.057373 685.466736,535.342041 
z"/>
<path fill="#0B0500" opacity="1.000000" stroke="none" 
	d="
M603.187134,534.859009 
	C605.169739,536.262085 608.073975,537.670288 608.044739,539.014709 
	C608.000549,541.046204 605.911438,543.033264 604.472656,545.398804 
	C605.502380,546.611267 607.068542,548.455322 608.634705,550.299438 
	C608.228027,550.770386 607.821289,551.241394 607.414612,551.712402 
	C604.809631,549.654236 602.204651,547.596069 599.620544,545.554382 
	C599.073547,547.281677 598.472839,549.178528 597.872131,551.075439 
	C597.372681,550.945435 596.873230,550.815430 596.373779,550.685425 
	C596.373779,545.536926 596.373779,540.388367 596.373779,534.835510 
	C598.533508,534.835510 600.664490,534.835510 603.187134,534.859009 
M601.438049,537.207458 
	C600.507446,538.430237 599.576843,539.653015 598.646240,540.875793 
	C599.156311,541.370789 599.666443,541.865845 600.176514,542.360840 
	C601.779480,541.550781 603.382385,540.740723 604.985352,539.930664 
	C604.072021,539.028076 603.158630,538.125549 601.438049,537.207458 
z"/>
<path fill="#1E0C00" opacity="1.000000" stroke="none" 
	d="
M588.700073,546.175293 
	C589.204651,547.770935 589.565491,549.007080 590.357117,551.719360 
	C587.137573,549.706726 585.018127,547.334717 582.907410,547.342468 
	C580.568115,547.351013 578.236755,549.534180 574.682068,551.416260 
	C576.805603,545.596191 578.186523,540.539551 580.514343,535.964783 
	C581.689514,533.655273 584.166260,534.094238 585.241455,536.961853 
	C586.347778,539.912659 587.451416,542.864441 588.700073,546.175293 
z"/>
<path fill="#1E0C00" opacity="1.000000" stroke="none" 
	d="
M661.675598,544.901123 
	C660.372070,546.100525 659.494019,547.292480 658.594543,548.468018 
	C657.989624,549.258606 657.354492,550.026062 656.732910,550.803955 
	C656.188293,549.966125 655.205383,549.144897 655.173035,548.287720 
	C655.011230,544.009033 655.099060,539.720947 655.099060,535.501953 
	C662.769226,533.753845 667.187622,534.668701 667.975708,538.248718 
	C669.018677,542.986633 665.873901,544.282410 661.675598,544.901123 
M659.952026,537.316284 
	C659.454773,538.729248 658.957520,540.142212 658.460266,541.555237 
	C658.873108,541.904358 659.285950,542.253479 659.698792,542.602661 
	C661.398132,541.785461 663.097473,540.968262 664.796814,540.151062 
	C663.432617,539.188232 662.068481,538.225403 659.952026,537.316284 
z"/>
<path fill="#1E0C00" opacity="1.000000" stroke="none" 
	d="
M711.125549,536.619019 
	C714.853455,535.603516 718.554565,535.026978 723.029968,534.329773 
	C721.187073,539.301392 713.426758,534.280334 715.007629,541.657349 
	C717.405151,541.885315 719.577087,542.091858 721.749023,542.298401 
	C721.809937,542.772217 721.870911,543.246094 721.931824,543.719971 
	C719.771912,544.181396 717.612000,544.642822 715.297668,545.137207 
	C715.225464,545.234619 714.988464,545.468872 714.852356,545.751709 
	C714.044739,547.429443 713.260437,549.118408 712.468262,550.803528 
	C712.007446,549.042358 711.286560,547.301697 711.145508,545.515320 
	C710.924316,542.712402 711.094421,539.878601 711.125549,536.619019 
z"/>
<path fill="#1E0C00" opacity="1.000000" stroke="none" 
	d="
M547.500122,550.913879 
	C544.963074,550.914246 542.844177,550.914246 540.408447,550.914246 
	C540.408447,545.475098 540.408447,540.551331 540.408447,535.607422 
	C543.605835,535.290283 543.608887,535.290283 543.622803,540.041077 
	C543.630005,542.504578 543.624084,544.968079 543.624084,547.733521 
	C546.264343,547.953735 548.492798,548.139587 550.721191,548.325500 
	C550.869568,548.747742 551.017883,549.169922 551.166199,549.592163 
	C550.083557,550.032593 549.000854,550.473083 547.500122,550.913879 
z"/>
<path fill="#0B0500" opacity="1.000000" stroke="none" 
	d="
M851.978577,543.899597 
	C851.978577,540.331970 851.978577,537.238892 851.978577,533.917969 
	C855.286865,535.202698 856.066589,542.007812 854.388123,549.846924 
	C853.911316,549.957764 853.434570,550.068665 852.957764,550.179504 
	C852.631348,548.244385 852.304932,546.309265 851.978577,543.899597 
z"/>
<path fill="#F5ECE5" opacity="1.000000" stroke="none" 
	d="
M758.355225,308.203613 
	C758.089722,308.422363 757.802063,308.676544 757.514404,308.930725 
	C757.614990,308.743317 757.715576,308.555908 758.104980,308.291077 
	C758.393738,308.213684 758.333130,308.239044 758.355225,308.203613 
z"/>
<path fill="#F5ECE5" opacity="1.000000" stroke="none" 
	d="
M756.525208,306.512939 
	C756.552734,306.499084 756.497681,306.526764 756.525208,306.512939 
z"/>
<path fill="#FB6A03" opacity="1.000000" stroke="none" 
	d="
M710.979126,320.065063 
	C711.814087,319.932251 713.171692,319.301422 713.489990,319.641998 
	C717.331604,323.752594 721.143677,327.907074 724.662842,332.291443 
	C725.574463,333.427185 725.939026,335.478607 725.701233,336.973694 
	C724.890686,342.070770 716.898926,345.399384 710.359314,343.580261 
	C703.911987,341.786774 700.828430,336.734985 703.529663,331.151306 
	C705.375977,327.334656 708.430237,324.102356 711.027100,320.272461 
	C711.109802,319.936096 711.018860,320.018402 710.979126,320.065063 
z"/>
<path fill="#FB6A03" opacity="1.000000" stroke="none" 
	d="
M757.851685,461.644653 
	C759.072815,465.535706 760.202148,469.093353 761.480835,473.121521 
	C758.002686,473.121521 755.154480,473.121521 751.571045,473.121521 
	C753.218079,468.177277 754.733948,463.626556 756.441833,458.499634 
	C757.069641,459.838989 757.414734,460.575134 757.851685,461.644653 
z"/>
<path fill="#FB6A03" opacity="1.000000" stroke="none" 
	d="
M684.734497,464.421387 
	C685.654175,467.413666 686.456665,470.044586 687.382751,473.080658 
	C685.584717,473.236847 684.324463,473.426819 683.063049,473.435638 
	C681.458374,473.446899 679.852722,473.311401 677.480469,473.204620 
	C679.168457,468.118256 680.684387,463.550293 682.467773,458.176483 
	C683.387024,460.692535 684.002197,462.376282 684.734497,464.421387 
z"/>
<path fill="#FB6A03" opacity="1.000000" stroke="none" 
	d="
M660.000366,417.272156 
	C661.764343,418.088043 663.484619,418.619843 664.475342,419.776581 
	C666.855469,422.555298 666.224487,427.425568 663.402283,429.625061 
	C660.746521,431.694824 658.150696,431.368439 655.910278,428.934814 
	C653.282043,426.079926 653.550659,421.039398 656.492126,418.661774 
	C657.350159,417.968201 658.570557,417.722961 660.000366,417.272156 
z"/>
<path fill="#FB6A03" opacity="1.000000" stroke="none" 
	d="
M772.739502,421.010132 
	C774.604309,417.628052 777.528809,415.893402 780.175842,418.146210 
	C782.138855,419.816833 783.473572,423.402710 783.289429,426.008362 
	C783.165283,427.765808 779.766174,430.739349 778.091064,430.572327 
	C776.009949,430.364777 773.916809,427.687103 772.395874,425.652435 
	C771.732849,424.765533 772.479553,422.824768 772.739502,421.010132 
z"/>
<path fill="#FB6A03" opacity="1.000000" stroke="none" 
	d="
M695.420166,538.353027 
	C696.109863,537.748047 696.797668,537.185913 697.244324,537.337036 
	C698.636841,537.808044 699.938049,538.548950 701.274658,539.185242 
	C700.459167,540.007385 699.774475,541.276001 698.801636,541.560974 
	C696.604370,542.204590 694.867737,541.637756 695.420166,538.353027 
z"/>
<path fill="#FB6A03" opacity="1.000000" stroke="none" 
	d="
M753.419189,538.353638 
	C754.105103,537.748901 754.790222,537.186829 755.233337,537.337341 
	C756.610596,537.805176 757.896118,538.543335 759.217224,539.176697 
	C758.411926,540.001831 757.739319,541.276428 756.774475,541.561218 
	C754.571960,542.211304 752.870422,541.608887 753.419189,538.353638 
z"/>
<path fill="#FB6A03" opacity="1.000000" stroke="none" 
	d="
M731.286377,541.439087 
	C732.469299,537.946350 734.824097,535.855652 737.625610,537.935425 
	C739.282898,539.165833 739.950195,542.588013 739.838440,544.967041 
	C739.785583,546.091858 736.840759,547.981445 735.236938,547.950134 
	C731.602600,547.879150 731.250183,544.745850 731.286377,541.439087 
z"/>
<path fill="#FB6A03" opacity="1.000000" stroke="none" 
	d="
M601.841675,537.215210 
	C603.158630,538.125549 604.072021,539.028076 604.985352,539.930664 
	C603.382385,540.740723 601.779480,541.550781 600.176514,542.360840 
	C599.666443,541.865845 599.156311,541.370789 598.646240,540.875793 
	C599.576843,539.653015 600.507446,538.430237 601.841675,537.215210 
z"/>
<path fill="#FB6A03" opacity="1.000000" stroke="none" 
	d="
M660.328125,537.289429 
	C662.068481,538.225403 663.432617,539.188232 664.796814,540.151062 
	C663.097473,540.968262 661.398132,541.785461 659.698792,542.602661 
	C659.285950,542.253479 658.873108,541.904358 658.460266,541.555237 
	C658.957520,540.142212 659.454773,538.729248 660.328125,537.289429 
z"/>
</svg>